<mxfile host="app.diagrams.net" modified="2024-06-16T16:42:44.748Z" agent="Mozilla/5.0 (Windows NT 10.0; Win64; x64) AppleWebKit/537.36 (KHTML, like Gecko) Chrome/125.0.0.0 Safari/537.36" version="24.3.1" etag="VMH3AF--XfS-AKEhxbg_" type="github">
  <diagram name="Page-1" id="1Ft_zk9lds77382e7fcb">
    <mxGraphModel>
      <root>
        <mxCell id="0" />
        <mxCell id="1" parent="0" />
      </root>
    </mxGraphModel>
  </diagram>
</mxfile>
